<svg width="24" height="24" viewBox="0 0 24 24" fill="none" xmlns="http://www.w3.org/2000/svg">
<path fill-rule="evenodd" clip-rule="evenodd" d="M7 8.75C7 8.33579 7.33579 8 7.75 8H14.25C14.6642 8 15 8.33579 15 8.75C15 9.16421 14.6642 9.5 14.25 9.5H7.75C7.33579 9.5 7 9.16421 7 8.75Z" fill="#222B45"/>
<path fill-rule="evenodd" clip-rule="evenodd" d="M7 12.25C7 11.8358 7.33579 11.5 7.75 11.5H14.25C14.6642 11.5 15 11.8358 15 12.25C15 12.6642 14.6642 13 14.25 13H7.75C7.33579 13 7 12.6642 7 12.25Z" fill="#222B45"/>
<path fill-rule="evenodd" clip-rule="evenodd" d="M7 15.75C7 15.3358 7.33579 15 7.75 15H12.25C12.6642 15 13 15.3358 13 15.75C13 16.1642 12.6642 16.5 12.25 16.5H7.75C7.33579 16.5 7 16.1642 7 15.75Z" fill="#222B45"/>
<path d="M17.85 19V15.85H19C20.0217 15.85 20.85 15.0217 20.85 14V5C20.85 3.97827 20.0217 3.15 19 3.15H16H6C4.97827 3.15 4.15 3.97827 4.15 5V19C4.15 20.0217 4.97827 20.85 6 20.85H16C17.0217 20.85 17.85 20.0217 17.85 19Z" stroke="#222B45" stroke-width="1.7"/>
<rect x="4.15" y="3.15" width="13.7" height="17.7" rx="1.85" stroke="#222B45" stroke-width="1.7"/>
</svg>
