<svg width="34" height="34" viewBox="0 0 34 34" fill="none" xmlns="http://www.w3.org/2000/svg">
<path d="M2.48959 31.5104C0 29.0208 0 25.0139 0 17C0 8.98612 0 4.97918 2.48959 2.48959C4.97918 0 8.98612 0 17 0C25.0139 0 29.0208 0 31.5104 2.48959C34 4.97919 34 8.98612 34 17C34 25.0139 34 29.0208 31.5104 31.5104C29.0208 34 25.0139 34 17 34C8.98612 34 4.97918 34 2.48959 31.5104Z" fill="#292A2F"/>
<path d="M20.6095 21.6101C21.1302 22.1568 21.1302 23.0432 20.6095 23.5899C20.0888 24.1367 19.2446 24.1367 18.7239 23.5899L13.3905 17.9899C13.1405 17.7274 13 17.3713 13 17C13 16.6287 13.1405 16.2726 13.3905 16.01L18.7239 10.4101C19.2446 9.86332 20.0888 9.86332 20.6095 10.4101C21.1302 10.9568 21.1302 11.8432 20.6095 12.39L16.2189 17L20.6095 21.6101Z" fill="white"/>
</svg>
