<svg width="34" height="34" viewBox="0 0 34 34" fill="none" xmlns="http://www.w3.org/2000/svg">
<path d="M8.05265 17C8.05265 17.8284 7.385 18.5 6.56142 18.5C5.73784 18.5 5.07019 17.8284 5.07019 17C5.07019 16.1716 5.73784 15.5 6.56142 15.5C7.385 15.5 8.05265 16.1716 8.05265 17Z" fill="white"/>
<path d="M8.05265 26C8.05265 26.8284 7.385 27.5 6.56142 27.5C5.73784 27.5 5.07019 26.8284 5.07019 26C5.07019 25.1716 5.73784 24.5 6.56142 24.5C7.385 24.5 8.05265 25.1716 8.05265 26Z" fill="white"/>
<path d="M8.05265 8C8.05265 8.82843 7.385 9.5 6.56142 9.5C5.73784 9.5 5.07019 8.82843 5.07019 8C5.07019 7.17157 5.73784 6.5 6.56142 6.5C7.385 6.5 8.05265 7.17157 8.05265 8Z" fill="white"/>
<g opacity="0.5">
<path fill-rule="evenodd" clip-rule="evenodd" d="M4.98033 22.2768C5.36499 22.2504 5.85642 22.25 6.56144 22.25H27.4386C28.1437 22.25 28.6351 22.2504 29.0197 22.2768C29.3977 22.3027 29.6178 22.3513 29.7859 22.4213C30.334 22.6496 30.7694 23.0876 30.9964 23.639C31.066 23.808 31.1143 24.0294 31.1401 24.4096C31.1663 24.7965 31.1667 25.2908 31.1667 26C31.1667 26.7092 31.1663 27.2035 31.1401 27.5904C31.1143 27.9706 31.066 28.192 30.9964 28.361C30.7694 28.9124 30.334 29.3504 29.7859 29.5787C29.6178 29.6487 29.3977 29.6973 29.0197 29.7232C28.6351 29.7496 28.1437 29.75 27.4386 29.75H6.56144C5.85642 29.75 5.36499 29.7496 4.98033 29.7232C4.60237 29.6973 4.38226 29.6487 4.21421 29.5787C3.66612 29.3504 3.23067 28.9124 3.00364 28.361C2.93403 28.192 2.88581 27.9706 2.86002 27.5904C2.83378 27.2035 2.83337 26.7092 2.83337 26C2.83337 25.2908 2.83378 24.7965 2.86002 24.4096C2.88581 24.0294 2.93403 23.808 3.00364 23.639C3.23067 23.0876 3.66612 22.6496 4.21421 22.4213C4.38226 22.3513 4.60237 22.3027 4.98033 22.2768ZM6.56144 27.5C7.38503 27.5 8.05267 26.8284 8.05267 26C8.05267 25.1716 7.38503 24.5 6.56144 24.5C5.73786 24.5 5.07022 25.1716 5.07022 26C5.07022 26.8284 5.73786 27.5 6.56144 27.5Z" fill="white"/>
<path fill-rule="evenodd" clip-rule="evenodd" d="M6.56144 11.75C5.85642 11.75 5.36499 11.7496 4.98033 11.7232C4.60237 11.6973 4.38226 11.6487 4.21421 11.5787C3.66612 11.3504 3.23067 10.9124 3.00364 10.361C2.93403 10.192 2.88581 9.9706 2.86002 9.59041C2.83378 9.20349 2.83337 8.70917 2.83337 8C2.83337 7.29083 2.83378 6.79651 2.86002 6.40959C2.88581 6.0294 2.93403 5.808 3.00364 5.63896C3.23067 5.08765 3.66612 4.64963 4.21421 4.42127C4.38226 4.35125 4.60237 4.30275 4.98033 4.27681C5.36499 4.25041 5.85642 4.25 6.56144 4.25H27.4386C28.1437 4.25 28.6351 4.25041 29.0197 4.27681C29.3977 4.30275 29.6178 4.35125 29.7859 4.42127C30.334 4.64963 30.7694 5.08765 30.9964 5.63896C31.066 5.808 31.1143 6.0294 31.1401 6.40959C31.1663 6.79651 31.1667 7.29083 31.1667 8C31.1667 8.70917 31.1663 9.20349 31.1401 9.59041C31.1143 9.9706 31.066 10.192 30.9964 10.361C30.7694 10.9124 30.334 11.3504 29.7859 11.5787C29.6178 11.6487 29.3977 11.6973 29.0197 11.7232C28.6351 11.7496 28.1437 11.75 27.4386 11.75H6.56144ZM6.56144 13.25C5.85642 13.25 5.36499 13.2504 4.98033 13.2768C4.60237 13.3027 4.38226 13.3513 4.21421 13.4213C3.66612 13.6496 3.23067 14.0876 3.00364 14.639C2.93403 14.808 2.88581 15.0294 2.86002 15.4096C2.83378 15.7965 2.83337 16.2908 2.83337 17C2.83337 17.7092 2.83378 18.2035 2.86002 18.5904C2.88581 18.9706 2.93403 19.192 3.00364 19.361C3.23067 19.9124 3.66612 20.3504 4.21421 20.5787C4.38226 20.6487 4.60237 20.6973 4.98033 20.7232C5.36499 20.7496 5.85642 20.75 6.56144 20.75H27.4386C28.1437 20.75 28.6351 20.7496 29.0197 20.7232C29.3977 20.6973 29.6178 20.6487 29.7859 20.5787C30.334 20.3504 30.7694 19.9124 30.9964 19.361C31.066 19.192 31.1143 18.9706 31.1401 18.5904C31.1663 18.2035 31.1667 17.7092 31.1667 17C31.1667 16.2908 31.1663 15.7965 31.1401 15.4096C31.1143 15.0294 31.066 14.808 30.9964 14.639C30.7694 14.0876 30.334 13.6496 29.7859 13.4213C29.6178 13.3513 29.3977 13.3027 29.0197 13.2768C28.6351 13.2504 28.1437 13.25 27.4386 13.25H6.56144ZM8.05267 17C8.05267 17.8284 7.38503 18.5 6.56144 18.5C5.73786 18.5 5.07022 17.8284 5.07022 17C5.07022 16.1716 5.73786 15.5 6.56144 15.5C7.38503 15.5 8.05267 16.1716 8.05267 17ZM6.56144 9.5C7.38503 9.5 8.05267 8.82843 8.05267 8C8.05267 7.17157 7.38503 6.5 6.56144 6.5C5.73786 6.5 5.07022 7.17157 5.07022 8C5.07022 8.82843 5.73786 9.5 6.56144 9.5Z" fill="white"/>
</g>
</svg>
