<svg width="48" height="48" viewBox="0 0 48 48" fill="none" xmlns="http://www.w3.org/2000/svg">
<g clip-path="url(#clip0_158_1802)">
<path d="M38.4 0H9.6C4.29807 0 0 4.29807 0 9.6V38.4C0 43.7019 4.29807 48 9.6 48H38.4C43.7019 48 48 43.7019 48 38.4V9.6C48 4.29807 43.7019 0 38.4 0Z" fill="white"/>
<path opacity="0.8" d="M27.1404 27.1404C34.4042 19.8767 38.773 12.4687 36.8985 10.5941C35.024 8.71962 27.616 13.0885 20.3522 20.3522C13.0884 27.616 8.71961 35.024 10.5941 36.8985C12.4686 38.773 19.8767 34.4042 27.1404 27.1404Z" fill="black"/>
<path opacity="0.8" d="M20.3521 27.1406C27.6158 34.4044 35.0238 38.7732 36.8984 36.8987C38.7729 35.0242 34.404 27.6161 27.1403 20.3524C19.8765 13.0886 12.4685 8.71979 10.594 10.5943C8.71947 12.4688 13.0883 19.8769 20.3521 27.1406Z" fill="black"/>
<path opacity="0.3" d="M24 33.5999C29.302 33.5999 33.6 29.3018 33.6 23.9999C33.6 18.698 29.302 14.3999 24 14.3999C18.6981 14.3999 14.4 18.698 14.4 23.9999C14.4 29.3018 18.6981 33.5999 24 33.5999Z" stroke="black" stroke-width="2"/>
<path opacity="0.3" d="M24 42C33.9411 42 42 33.9411 42 24C42 14.0589 33.9411 6 24 6C14.0589 6 6 14.0589 6 24C6 33.9411 14.0589 42 24 42Z" stroke="black" stroke-width="2"/>
<path opacity="0.2" d="M24 10.7999C24.6627 10.7999 25.2 10.2626 25.2 9.5999C25.2 8.93716 24.6627 8.3999 24 8.3999C23.3372 8.3999 22.8 8.93716 22.8 9.5999C22.8 10.2626 23.3372 10.7999 24 10.7999Z" fill="black"/>
<path opacity="0.2" d="M24 39.6002C24.6627 39.6002 25.2 39.0629 25.2 38.4002C25.2 37.7375 24.6627 37.2002 24 37.2002C23.3372 37.2002 22.8 37.7375 22.8 38.4002C22.8 39.0629 23.3372 39.6002 24 39.6002Z" fill="black"/>
<path opacity="0.2" d="M9.60002 25.1998C10.2628 25.1998 10.8 24.6625 10.8 23.9998C10.8 23.3371 10.2628 22.7998 9.60002 22.7998C8.93728 22.7998 8.40002 23.3371 8.40002 23.9998C8.40002 24.6625 8.93728 25.1998 9.60002 25.1998Z" fill="black"/>
<path opacity="0.2" d="M38.4 25.1998C39.0628 25.1998 39.6 24.6625 39.6 23.9998C39.6 23.3371 39.0628 22.7998 38.4 22.7998C37.7373 22.7998 37.2 23.3371 37.2 23.9998C37.2 24.6625 37.7373 25.1998 38.4 25.1998Z" fill="black"/>
<path d="M38.4 1.2002H9.60001C4.96082 1.2002 1.20001 4.961 1.20001 9.60019V38.4002C1.20001 43.0394 4.96082 46.8002 9.60001 46.8002H38.4C43.0392 46.8002 46.8 43.0394 46.8 38.4002V9.60019C46.8 4.961 43.0392 1.2002 38.4 1.2002Z" stroke="black" stroke-opacity="0.2" stroke-width="2"/>
</g>
<defs>
<clipPath id="clip0_158_1802">
<rect width="48" height="48" fill="white"/>
</clipPath>
</defs>
</svg>
