<svg width="20" height="20" viewBox="0 0 20 20" fill="none" xmlns="http://www.w3.org/2000/svg">
<g clip-path="url(#clip0_5773_4010)">
<path d="M14.1663 10.0001V9.92507C14.1625 9.84508 14.1456 9.76626 14.1163 9.69173C14.0941 9.63458 14.0631 9.58118 14.0247 9.5334C14.0026 9.49537 13.9775 9.45914 13.9497 9.42507L11.5663 6.92507C11.4908 6.84573 11.4004 6.78204 11.3003 6.73763C11.2002 6.69323 11.0923 6.66898 10.9828 6.66627C10.7617 6.6608 10.5474 6.7434 10.3872 6.8959C10.2269 7.0484 10.1338 7.25831 10.1284 7.47944C10.1229 7.70058 10.2055 7.91483 10.358 8.07507L11.383 9.16673H6.66634C6.44533 9.16673 6.23337 9.25453 6.07709 9.41081C5.92081 9.56709 5.83301 9.77905 5.83301 10.0001C5.83301 10.2211 5.92081 10.433 6.07709 10.5893C6.23337 10.7456 6.44533 10.8334 6.66634 10.8334H11.3247L10.2413 11.9084C10.1632 11.9859 10.1012 12.078 10.0589 12.1796C10.0166 12.2811 9.99484 12.3901 9.99484 12.5001C9.99484 12.6101 10.0166 12.719 10.0589 12.8205C10.1012 12.9221 10.1632 13.0143 10.2413 13.0917C10.3188 13.1698 10.411 13.2318 10.5125 13.2741C10.6141 13.3165 10.723 13.3382 10.833 13.3382C10.943 13.3382 11.0519 13.3165 11.1535 13.2741C11.255 13.2318 11.3472 13.1698 11.4247 13.0917L13.9247 10.5917C13.9996 10.5149 14.0591 10.4244 14.0997 10.3251C14.1435 10.2223 14.1661 10.1118 14.1663 10.0001Z" fill="#fff"/>
<path d="M10.0003 1.66675C8.35215 1.66675 6.74099 2.15549 5.37058 3.07117C4.00017 3.98685 2.93206 5.28834 2.30133 6.81105C1.6706 8.33377 1.50558 10.0093 1.82712 11.6258C2.14866 13.2423 2.94234 14.7272 4.10777 15.8926C5.27321 17.0581 6.75807 17.8517 8.37458 18.1733C9.99109 18.4948 11.6666 18.3298 13.1894 17.6991C14.7121 17.0683 16.0136 16.0002 16.9292 14.6298C17.8449 13.2594 18.3337 11.6483 18.3337 10.0001C18.3337 8.90573 18.1181 7.8221 17.6993 6.81105C17.2805 5.80001 16.6667 4.88135 15.8929 4.10752C15.1191 3.3337 14.2004 2.71987 13.1894 2.30109C12.1783 1.8823 11.0947 1.66675 10.0003 1.66675ZM10.0003 16.6667C8.68179 16.6667 7.39286 16.2758 6.29653 15.5432C5.2002 14.8107 4.34572 13.7695 3.84113 12.5513C3.33655 11.3331 3.20453 9.99269 3.46176 8.69948C3.719 7.40627 4.35393 6.21839 5.28628 5.28604C6.21863 4.35369 7.40652 3.71875 8.69973 3.46151C9.99293 3.20428 11.3334 3.3363 12.5516 3.84088C13.7697 4.34547 14.8109 5.19995 15.5435 6.29628C16.276 7.39261 16.667 8.68154 16.667 10.0001C16.667 11.7682 15.9646 13.4639 14.7144 14.7141C13.4641 15.9644 11.7684 16.6667 10.0003 16.6667Z" fill="#fff"/>
</g>
<defs>
<clipPath id="clip0_5773_4010">
<rect width="20" height="20" fill="white"/>
</clipPath>
</defs>
</svg>
