<svg width="26" height="24" viewBox="0 0 26 24" fill="none" xmlns="http://www.w3.org/2000/svg">
<path d="M20.0004 10.9998H7.5162L11.3373 6.63979C11.5159 6.43557 11.6019 6.17229 11.5762 5.90786C11.5506 5.64344 11.4154 5.39953 11.2004 5.22979C10.9854 5.06005 10.7083 4.97839 10.43 5.00277C10.1516 5.02715 9.89487 5.15557 9.7162 5.35979L4.45304 11.3598C4.41763 11.4075 4.38597 11.4576 4.35831 11.5098C4.35831 11.5598 4.35831 11.5898 4.28462 11.6398C4.23691 11.7544 4.21193 11.8765 4.21094 11.9998C4.21193 12.1231 4.23691 12.2451 4.28462 12.3598C4.28462 12.4098 4.28462 12.4398 4.35831 12.4898C4.38597 12.5419 4.41763 12.5921 4.45304 12.6398L9.7162 18.6398C9.81517 18.7527 9.93911 18.8434 10.0792 18.9057C10.2193 18.9679 10.3721 19 10.5267 18.9998C10.7727 19.0002 11.011 18.9189 11.2004 18.7698C11.307 18.6858 11.3951 18.5827 11.4597 18.4664C11.5243 18.35 11.5641 18.2227 11.5768 18.0918C11.5895 17.9608 11.5749 17.8287 11.5338 17.7031C11.4927 17.5775 11.4259 17.4608 11.3373 17.3598L7.5162 12.9998H20.0004C20.2796 12.9998 20.5473 12.8944 20.7447 12.7069C20.9421 12.5194 21.053 12.265 21.053 11.9998C21.053 11.7346 20.9421 11.4802 20.7447 11.2927C20.5473 11.1051 20.2796 10.9998 20.0004 10.9998Z" fill="#222B45"/>
</svg>
