<svg width="24" height="24" viewBox="0 0 24 24" fill="none" xmlns="http://www.w3.org/2000/svg">
<path d="M15.4196 20.3291C16.4913 19.8873 17.4894 19.241 18.3565 18.3738C21.8743 14.864 21.8825 9.16159 18.3729 5.64361C14.8633 2.12563 9.16123 2.11745 5.64345 5.62724C2.12568 9.13704 2.1175 14.8394 5.62709 18.3574C7.3778 20.1164 9.67663 21 11.9836 21L12 11.4115H9.65209" stroke="#3DBCCC" stroke-width="1.7" stroke-miterlimit="10" stroke-linecap="round" stroke-linejoin="round"/>
<path d="M11.9913 8.36453C12.6607 8.36453 13.2034 7.82188 13.2034 7.15248C13.2034 6.48308 12.6607 5.94043 11.9913 5.94043C11.322 5.94043 10.7793 6.48308 10.7793 7.15248C10.7793 7.82188 11.322 8.36453 11.9913 8.36453Z" fill="#3DBCCC"/>
</svg>
