<svg width="34" height="34" viewBox="0 0 34 34" fill="none" xmlns="http://www.w3.org/2000/svg">
<path opacity="0.6" d="M21.25 2.8335H19.8333C15.8264 2.8335 13.8229 2.8335 12.5781 4.07829C11.3333 5.32309 11.3333 7.32656 11.3333 11.3335V22.6668C11.3333 26.6738 11.3333 28.6772 12.5781 29.922C13.8229 31.1668 15.8264 31.1668 19.8333 31.1668H21.25C25.2569 31.1668 27.2604 31.1668 28.5052 29.922C29.75 28.6772 29.75 26.6738 29.75 22.6668V11.3335C29.75 7.32656 29.75 5.32309 28.5052 4.07829C27.2604 2.8335 25.2569 2.8335 21.25 2.8335Z" fill="#D82222"/>
<path opacity="0.4" d="M11.3333 11.3333C11.3333 9.1552 11.3333 7.56907 11.5333 6.375H11.3333C7.99422 6.375 6.32466 6.375 5.28733 7.41233C4.25 8.44966 4.25 10.1192 4.25 13.4583V20.5417C4.25 23.8808 4.25 25.5503 5.28733 26.5877C6.32466 27.625 7.99422 27.625 11.3333 27.625H11.5333C11.3333 26.4309 11.3333 24.8448 11.3333 22.6667V18.0625V15.9375V11.3333Z" fill="#D82222"/>
<path fill-rule="evenodd" clip-rule="evenodd" d="M6.33204 16.2485C5.91711 16.6635 5.91711 17.3362 6.33204 17.7511L9.16538 20.5845C9.58031 20.9994 10.253 20.9994 10.668 20.5845C11.0829 20.1695 11.0829 19.4968 10.668 19.0819L9.64845 18.0623L19.8333 18.0623C20.4201 18.0623 20.8958 17.5866 20.8958 16.9998C20.8958 16.413 20.4201 15.9373 19.8333 15.9373L9.64845 15.9373L10.668 14.9178C11.0829 14.5029 11.0829 13.8301 10.668 13.4152C10.253 13.0003 9.58031 13.0003 9.16538 13.4152L6.33204 16.2485Z" fill="#171717"/>
</svg>
