<svg width="33" height="33" viewBox="0 0 33 33" fill="none" xmlns="http://www.w3.org/2000/svg">
<circle cx="16.5454" cy="16" r="16" fill="white"/>
<path d="M24.796 16.5046V16.5001L24.7914 14.0801C24.7914 13.0855 23.9801 12.2788 22.9855 12.2788H10.0055C9.01096 12.2788 8.20429 13.0855 8.19971 14.0801V16.5001H8.20429V16.5046L8.20887 18.9246C8.20887 19.9192 9.01554 20.7259 10.0147 20.7259H22.9993C23.9939 20.7259 24.8005 19.9192 24.8051 18.9246L24.796 16.5046ZM12.7097 18.2555C11.738 18.2555 10.9543 17.4717 10.9543 16.5001C10.9543 15.533 11.738 14.7446 12.7097 14.7446C13.6768 14.7446 14.4651 15.5284 14.4651 16.5001C14.4605 17.4671 13.6768 18.2555 12.7097 18.2555ZM20.3822 18.1684C19.461 18.1684 18.7139 17.4213 18.7139 16.5001C18.7139 15.5788 19.461 14.8317 20.3822 14.8317C21.3035 14.8317 22.046 15.5788 22.046 16.5001C22.046 17.4213 21.3035 18.1684 20.3822 18.1684Z" fill="#4DAAFF"/>
<path d="M28.1691 4.83066C21.7249 -1.60892 11.2749 -1.60892 4.83534 4.83066C-1.61341 11.2748 -1.61341 21.7248 4.83534 28.169C11.2795 34.6132 21.7249 34.6132 28.1691 28.169C34.6133 21.7248 34.6133 11.2748 28.1691 4.83066ZM29.6862 18.9336C29.6862 19.9282 28.8795 20.7348 27.8849 20.7348H26.6153C25.6208 20.7348 24.8141 21.5415 24.8095 22.5407V24.3373V25.6436C24.8095 26.6382 24.0028 27.4494 23.0037 27.4494H21.9862C21.4866 27.4494 21.0374 27.2477 20.7074 26.9223C20.382 26.5969 20.1803 26.1432 20.1803 25.6482C20.1803 24.924 19.5937 24.3419 18.8741 24.3419H15.1616H10.0053C9.50576 24.3419 9.05659 24.1402 8.73117 23.8148C8.40576 23.4894 8.20409 23.0357 8.20409 22.5361C8.20409 21.5415 7.39742 20.7348 6.40284 20.7302H5.11951C4.12492 20.7302 3.31826 19.9236 3.31826 18.929V16.509V14.0752C3.31826 13.0807 4.12492 12.274 5.12409 12.274H6.39367C7.38826 12.274 8.19492 11.4673 8.19951 10.4682V8.6715V7.36525C8.19951 6.37066 9.00617 5.55941 10.0053 5.55941H11.0228C11.5224 5.55941 11.9716 5.76108 12.3016 6.0865C12.627 6.41191 12.8287 6.86566 12.8287 7.36066C12.8287 8.08483 13.4153 8.66691 14.1349 8.66691H17.8474H23.0037C23.5033 8.66691 23.9524 8.86858 24.2778 9.194C24.6033 9.51941 24.8049 9.97316 24.8049 10.4727C24.8049 11.4673 25.6116 12.274 26.6062 12.2786H27.8895C28.8841 12.2786 29.6908 13.0852 29.6908 14.0798V16.4998L29.6862 18.9336Z" fill="#4DAAFF"/>
</svg>
