<svg width="18" height="18" viewBox="0 0 18 18" fill="none" xmlns="http://www.w3.org/2000/svg">
<path fill-rule="evenodd" clip-rule="evenodd" d="M9 18C4.02944 18 0 13.9706 0 9C0 4.02944 4.02944 0 9 0C13.9706 0 18 4.02944 18 9C18 13.9706 13.9706 18 9 18ZM9 17.1C13.4735 17.1 17.1 13.4735 17.1 9C17.1 4.52649 13.4735 0.9 9 0.9C4.52649 0.9 0.9 4.52649 0.9 9C0.9 13.4735 4.52649 17.1 9 17.1ZM9 14.4C11.9823 14.4 14.4 11.9823 14.4 9C14.4 6.01766 11.9823 3.6 9 3.6C6.01766 3.6 3.6 6.01766 3.6 9C3.6 11.9823 6.01766 14.4 9 14.4Z" fill="#3DBCCC"/>
</svg>
