<svg width="195" height="33" viewBox="0 0 195 33" fill="none" xmlns="http://www.w3.org/2000/svg">
<path d="M58.2667 10.1646C57.7778 9.76736 57.2889 9.47708 56.8 9.29375C56.3111 9.09514 55.8375 8.99583 55.3792 8.99583C54.7986 8.99583 54.325 9.13333 53.9583 9.40833C53.5917 9.68333 53.4083 10.0424 53.4083 10.4854C53.4083 10.791 53.5 11.0431 53.6833 11.2417C53.8667 11.4403 54.1035 11.616 54.3937 11.7688C54.6993 11.9062 55.0354 12.0285 55.4021 12.1354C55.784 12.2424 56.1583 12.3569 56.525 12.4792C57.9917 12.9681 59.0611 13.625 59.7333 14.45C60.4208 15.2597 60.7646 16.3215 60.7646 17.6354C60.7646 18.5215 60.6118 19.3236 60.3062 20.0417C60.016 20.7597 59.5806 21.3785 59 21.8979C58.4347 22.4021 57.7319 22.7917 56.8917 23.0667C56.0667 23.3569 55.1271 23.5021 54.0729 23.5021C51.8882 23.5021 49.8639 22.8528 48 21.5542L49.925 17.9333C50.5972 18.5292 51.2618 18.9722 51.9187 19.2625C52.5757 19.5528 53.225 19.6979 53.8667 19.6979C54.6 19.6979 55.1424 19.5299 55.4937 19.1938C55.8604 18.8576 56.0437 18.4757 56.0437 18.0479C56.0437 17.7882 55.9979 17.5667 55.9062 17.3833C55.8146 17.1847 55.6618 17.009 55.4479 16.8562C55.234 16.6882 54.9514 16.5354 54.6 16.3979C54.2639 16.2604 53.8514 16.1076 53.3625 15.9396C52.7819 15.7563 52.209 15.5576 51.6437 15.3438C51.0937 15.1146 50.5972 14.8167 50.1542 14.45C49.7264 14.0833 49.375 13.625 49.1 13.075C48.8403 12.5097 48.7104 11.7993 48.7104 10.9438C48.7104 10.0882 48.8479 9.31667 49.1229 8.62917C49.4132 7.92639 49.8104 7.33056 50.3146 6.84167C50.834 6.3375 51.4604 5.94792 52.1937 5.67292C52.9424 5.39792 53.775 5.26042 54.6917 5.26042C55.5472 5.26042 56.441 5.38264 57.3729 5.62708C58.3049 5.85625 59.1986 6.2 60.0542 6.65833L58.2667 10.1646Z" fill="white"/>
<path d="M67.3528 11.2646V23.0208H63.2048V11.2646H67.3528ZM62.9298 6.75C62.9298 6.42917 62.991 6.13125 63.1132 5.85625C63.2354 5.56597 63.4035 5.31389 63.6173 5.1C63.8312 4.88611 64.0757 4.71806 64.3507 4.59583C64.641 4.47361 64.9465 4.4125 65.2673 4.4125C65.5882 4.4125 65.8861 4.47361 66.1611 4.59583C66.4514 4.71806 66.7035 4.88611 66.9173 5.1C67.1312 5.31389 67.2993 5.56597 67.4215 5.85625C67.5437 6.13125 67.6048 6.42917 67.6048 6.75C67.6048 7.07083 67.5437 7.37639 67.4215 7.66667C67.2993 7.94167 67.1312 8.18611 66.9173 8.4C66.7035 8.61389 66.4514 8.78194 66.1611 8.90417C65.8861 9.02639 65.5882 9.0875 65.2673 9.0875C64.9465 9.0875 64.641 9.02639 64.3507 8.90417C64.0757 8.78194 63.8312 8.61389 63.6173 8.4C63.4035 8.18611 63.2354 7.94167 63.1132 7.66667C62.991 7.37639 62.9298 7.07083 62.9298 6.75Z" fill="white"/>
<path d="M70.1873 11.2646H74.3352V12.7083C75.4657 11.6236 76.7338 11.0813 78.1394 11.0813C79.881 11.0813 81.2102 11.8146 82.1269 13.2812C83.0588 11.7993 84.388 11.0583 86.1143 11.0583C86.6644 11.0583 87.1838 11.1424 87.6727 11.3104C88.1616 11.4632 88.5817 11.7153 88.9331 12.0667C89.2845 12.4028 89.5595 12.8458 89.7581 13.3958C89.972 13.9458 90.0789 14.6104 90.0789 15.3896V23.0208H85.931V17.2229C85.931 16.6271 85.8852 16.1382 85.7935 15.7563C85.7171 15.3743 85.5949 15.0764 85.4269 14.8625C85.2741 14.6486 85.0907 14.5035 84.8769 14.4271C84.663 14.3507 84.4338 14.3125 84.1894 14.3125C82.8602 14.3125 82.1956 15.2826 82.1956 17.2229V23.0208H78.0477V17.2229C78.0477 16.6271 78.0095 16.1382 77.9331 15.7563C77.8567 15.359 77.7421 15.0458 77.5894 14.8167C77.4519 14.5875 77.2685 14.4347 77.0394 14.3583C76.8102 14.2667 76.5428 14.2208 76.2373 14.2208C75.9775 14.2208 75.7331 14.259 75.5039 14.3354C75.2748 14.4118 75.0685 14.5646 74.8852 14.7937C74.7171 15.0076 74.5796 15.3132 74.4727 15.7104C74.381 16.0924 74.3352 16.5965 74.3352 17.2229V23.0208H70.1873V11.2646Z" fill="white"/>
<path d="M102.701 17.1771C102.701 16.8104 102.632 16.4667 102.494 16.1458C102.372 15.8097 102.189 15.5194 101.944 15.275C101.7 15.0306 101.41 14.8396 101.074 14.7021C100.753 14.5493 100.401 14.4729 100.019 14.4729C99.6527 14.4729 99.309 14.5417 98.9881 14.6792C98.6673 14.8167 98.3847 15.0076 98.1402 15.2521C97.9111 15.4965 97.7201 15.7868 97.5673 16.1229C97.4298 16.4438 97.3611 16.7875 97.3611 17.1542C97.3611 17.5208 97.4298 17.8646 97.5673 18.1854C97.7048 18.5062 97.8958 18.7889 98.1402 19.0333C98.3847 19.2625 98.6673 19.4535 98.9881 19.6063C99.3243 19.7438 99.6756 19.8125 100.042 19.8125C100.409 19.8125 100.753 19.7438 101.074 19.6063C101.394 19.4688 101.669 19.2778 101.899 19.0333C102.143 18.7889 102.334 18.5062 102.471 18.1854C102.624 17.8646 102.701 17.5285 102.701 17.1771ZM97.4756 28.8875H93.3277V11.2646H97.4756V12.5708C98.3618 11.4556 99.5687 10.8979 101.096 10.8979C101.937 10.8979 102.716 11.066 103.434 11.4021C104.167 11.7229 104.801 12.166 105.336 12.7312C105.871 13.2965 106.283 13.9611 106.574 14.725C106.879 15.4889 107.032 16.3062 107.032 17.1771C107.032 18.0479 106.879 18.8576 106.574 19.6063C106.283 20.3549 105.871 21.0118 105.336 21.5771C104.817 22.1424 104.198 22.5854 103.48 22.9062C102.762 23.2271 101.983 23.3875 101.142 23.3875C99.6756 23.3875 98.4534 22.8833 97.4756 21.875V28.8875Z" fill="white"/>
<path d="M113.544 4V23.0208H109.396V4H113.544Z" fill="white"/>
<path d="M124.972 15.4354C124.835 14.8549 124.552 14.3889 124.125 14.0375C123.697 13.6861 123.177 13.5104 122.566 13.5104C121.925 13.5104 121.397 13.6785 120.985 14.0146C120.588 14.3507 120.336 14.8243 120.229 15.4354H124.972ZM120.114 17.8417C120.114 19.6292 120.954 20.5229 122.635 20.5229C123.536 20.5229 124.216 20.1562 124.674 19.4229H128.685C127.875 22.1118 125.851 23.4562 122.612 23.4562C121.619 23.4562 120.71 23.3111 119.885 23.0208C119.06 22.7153 118.35 22.2875 117.754 21.7375C117.173 21.1875 116.722 20.5306 116.402 19.7667C116.081 19.0028 115.92 18.1472 115.92 17.2C115.92 16.2222 116.073 15.3438 116.379 14.5646C116.684 13.7701 117.12 13.0979 117.685 12.5479C118.25 11.9979 118.93 11.5778 119.725 11.2875C120.534 10.9819 121.443 10.8292 122.452 10.8292C123.445 10.8292 124.338 10.9819 125.133 11.2875C125.927 11.5778 126.6 12.0056 127.15 12.5708C127.7 13.1361 128.12 13.8313 128.41 14.6562C128.7 15.466 128.845 16.3826 128.845 17.4062V17.8417H120.114Z" fill="white"/>
<path d="M135.066 17.0854C135.066 17.4674 135.135 17.8264 135.273 18.1625C135.41 18.4833 135.593 18.766 135.823 19.0104C136.067 19.2549 136.35 19.4458 136.67 19.5833C137.007 19.7208 137.366 19.7896 137.748 19.7896C138.114 19.7896 138.458 19.7208 138.779 19.5833C139.115 19.4458 139.398 19.2549 139.627 19.0104C139.871 18.766 140.062 18.4833 140.2 18.1625C140.352 17.8264 140.429 17.475 140.429 17.1083C140.429 16.7264 140.352 16.375 140.2 16.0542C140.062 15.7333 139.871 15.4507 139.627 15.2063C139.382 14.9618 139.092 14.7708 138.756 14.6333C138.435 14.4958 138.099 14.4271 137.748 14.4271C137.381 14.4271 137.037 14.5035 136.716 14.6562C136.395 14.7938 136.113 14.9847 135.868 15.2292C135.624 15.4583 135.425 15.7333 135.273 16.0542C135.135 16.375 135.066 16.7188 135.066 17.0854ZM144.37 11.2646V22.2188C144.37 22.8757 144.332 23.4639 144.256 23.9833C144.18 24.5028 144.073 24.9611 143.935 25.3583C143.752 25.8625 143.461 26.3285 143.064 26.7563C142.682 27.1993 142.216 27.5812 141.666 27.9021C141.116 28.2229 140.49 28.475 139.787 28.6583C139.1 28.8417 138.351 28.9333 137.541 28.9333C136.625 28.9333 135.784 28.8188 135.02 28.5896C134.257 28.3604 133.584 28.0396 133.004 27.6271C132.439 27.2299 131.973 26.7563 131.606 26.2063C131.239 25.6715 130.995 25.0833 130.873 24.4417H135.548C135.838 25.2208 136.495 25.6104 137.518 25.6104C138.389 25.6104 139.054 25.366 139.512 24.8771C139.986 24.3882 140.223 23.7083 140.223 22.8375V21.7146C139.917 22.0049 139.619 22.2493 139.329 22.4479C139.054 22.6313 138.771 22.784 138.481 22.9062C138.191 23.0285 137.885 23.1125 137.564 23.1583C137.243 23.2194 136.892 23.25 136.51 23.25C135.67 23.25 134.898 23.1049 134.195 22.8146C133.493 22.5243 132.882 22.1194 132.362 21.6C131.858 21.0806 131.461 20.4618 131.17 19.7438C130.895 19.0104 130.758 18.2007 130.758 17.3146C130.758 16.4132 130.911 15.5806 131.216 14.8167C131.522 14.0375 131.934 13.3653 132.454 12.8C132.989 12.2194 133.615 11.7688 134.333 11.4479C135.066 11.1118 135.861 10.9438 136.716 10.9438C138.107 10.9438 139.275 11.4632 140.223 12.5021V11.2646H144.37Z" fill="white"/>
<path d="M147.598 11.2646H151.746V13.1896C152.189 12.4868 152.731 11.9521 153.373 11.5854C154.015 11.2035 154.763 11.0125 155.619 11.0125C155.726 11.0125 155.841 11.0125 155.963 11.0125C156.1 11.0125 156.253 11.0278 156.421 11.0583V15.0229C155.871 14.7479 155.275 14.6104 154.634 14.6104C153.671 14.6104 152.945 14.9007 152.456 15.4812C151.983 16.0465 151.746 16.8792 151.746 17.9792V23.0208H147.598V11.2646Z" fill="white"/>
<path d="M162.257 17.1083C162.257 17.4903 162.326 17.8493 162.464 18.1854C162.601 18.5062 162.785 18.7889 163.014 19.0333C163.258 19.2778 163.541 19.4688 163.862 19.6063C164.198 19.7438 164.557 19.8125 164.939 19.8125C165.305 19.8125 165.649 19.7438 165.97 19.6063C166.306 19.4688 166.589 19.2778 166.818 19.0333C167.062 18.7889 167.253 18.5062 167.391 18.1854C167.544 17.8646 167.62 17.5208 167.62 17.1542C167.62 16.7875 167.544 16.4438 167.391 16.1229C167.253 15.7868 167.062 15.4965 166.818 15.2521C166.589 15.0076 166.306 14.8167 165.97 14.6792C165.649 14.5417 165.305 14.4729 164.939 14.4729C164.557 14.4729 164.198 14.5417 163.862 14.6792C163.541 14.8167 163.258 15.0076 163.014 15.2521C162.785 15.4965 162.601 15.7792 162.464 16.1C162.326 16.4056 162.257 16.7417 162.257 17.1083ZM167.482 11.2646H171.653V23.0208H167.482V21.7146C166.596 22.8299 165.397 23.3875 163.885 23.3875C163.029 23.3875 162.242 23.2347 161.524 22.9292C160.806 22.6083 160.18 22.1653 159.645 21.6C159.11 21.0347 158.69 20.3701 158.385 19.6063C158.094 18.8424 157.949 18.0097 157.949 17.1083C157.949 16.2681 158.094 15.4736 158.385 14.725C158.675 13.9611 159.08 13.2965 159.599 12.7312C160.119 12.166 160.737 11.7229 161.455 11.4021C162.173 11.066 162.968 10.8979 163.839 10.8979C165.305 10.8979 166.52 11.4097 167.482 12.4333V11.2646Z" fill="white"/>
<path d="M174.476 11.2646H178.624V12.7083C179.754 11.6236 181.023 11.0813 182.428 11.0813C184.17 11.0813 185.499 11.8146 186.416 13.2812C187.348 11.7993 188.677 11.0583 190.403 11.0583C190.953 11.0583 191.473 11.1424 191.961 11.3104C192.45 11.4632 192.87 11.7153 193.222 12.0667C193.573 12.4028 193.848 12.8458 194.047 13.3958C194.261 13.9458 194.368 14.6104 194.368 15.3896V23.0208H190.22V17.2229C190.22 16.6271 190.174 16.1382 190.082 15.7563C190.006 15.3743 189.884 15.0764 189.716 14.8625C189.563 14.6486 189.379 14.5035 189.166 14.4271C188.952 14.3507 188.723 14.3125 188.478 14.3125C187.149 14.3125 186.484 15.2826 186.484 17.2229V23.0208H182.336V17.2229C182.336 16.6271 182.298 16.1382 182.222 15.7563C182.145 15.359 182.031 15.0458 181.878 14.8167C181.741 14.5875 181.557 14.4347 181.328 14.3583C181.099 14.2667 180.832 14.2208 180.526 14.2208C180.266 14.2208 180.022 14.259 179.793 14.3354C179.564 14.4118 179.357 14.5646 179.174 14.7937C179.006 15.0076 178.868 15.3132 178.761 15.7104C178.67 16.0924 178.624 16.5965 178.624 17.2229V23.0208H174.476V11.2646Z" fill="white"/>
<g clip-path="url(#clip0_158_2131)">
<circle cx="17" cy="16" r="16" fill="white"/>
<path d="M25.2505 16.5046V16.5001L25.246 14.0801C25.246 13.0855 24.4347 12.2788 23.4401 12.2788H10.4601C9.46555 12.2788 8.65888 13.0855 8.6543 14.0801V16.5001H8.65888V16.5046L8.66346 18.9246C8.66346 19.9192 9.47013 20.7259 10.4693 20.7259H23.4539C24.4485 20.7259 25.2551 19.9192 25.2597 18.9246L25.2505 16.5046ZM13.1643 18.2555C12.1926 18.2555 11.4089 17.4717 11.4089 16.5001C11.4089 15.533 12.1926 14.7446 13.1643 14.7446C14.1314 14.7446 14.9197 15.5284 14.9197 16.5001C14.9151 17.4671 14.1314 18.2555 13.1643 18.2555ZM20.8368 18.1684C19.9155 18.1684 19.1685 17.4213 19.1685 16.5001C19.1685 15.5788 19.9155 14.8317 20.8368 14.8317C21.758 14.8317 22.5005 15.5788 22.5005 16.5001C22.5005 17.4213 21.758 18.1684 20.8368 18.1684Z" fill="#4DAAFF"/>
<path d="M28.6237 4.83066C22.1795 -1.60892 11.7295 -1.60892 5.28993 4.83066C-1.15882 11.2748 -1.15882 21.7248 5.28993 28.169C11.7341 34.6132 22.1795 34.6132 28.6237 28.169C35.0678 21.7248 35.0678 11.2748 28.6237 4.83066ZM30.1408 18.9336C30.1408 19.9282 29.3341 20.7348 28.3395 20.7348H27.0699C26.0753 20.7348 25.2687 21.5415 25.2641 22.5407V24.3373V25.6436C25.2641 26.6382 24.4574 27.4494 23.4583 27.4494H22.4408C21.9412 27.4494 21.492 27.2477 21.162 26.9223C20.8366 26.5969 20.6349 26.1432 20.6349 25.6482C20.6349 24.924 20.0483 24.3419 19.3287 24.3419H15.6162H10.4599C9.96035 24.3419 9.51118 24.1402 9.18576 23.8148C8.86035 23.4894 8.65868 23.0357 8.65868 22.5361C8.65868 21.5415 7.85201 20.7348 6.85743 20.7302H5.5741C4.57951 20.7302 3.77285 19.9236 3.77285 18.929V16.509V14.0752C3.77285 13.0807 4.57951 12.274 5.57868 12.274H6.84826C7.84285 12.274 8.64951 11.4673 8.6541 10.4682V8.6715V7.36525C8.6541 6.37066 9.46076 5.55941 10.4599 5.55941H11.4774C11.977 5.55941 12.4262 5.76108 12.7562 6.0865C13.0816 6.41191 13.2833 6.86566 13.2833 7.36066C13.2833 8.08483 13.8699 8.66691 14.5895 8.66691H18.302H23.4583C23.9578 8.66691 24.407 8.86858 24.7324 9.194C25.0578 9.51941 25.2595 9.97316 25.2595 10.4727C25.2595 11.4673 26.0662 12.274 27.0608 12.2786H28.3441C29.3387 12.2786 30.1453 13.0852 30.1453 14.0798V16.4998L30.1408 18.9336Z" fill="#4DAAFF"/>
</g>
<defs>
<clipPath id="clip0_158_2131">
<rect width="33" height="33" fill="white" transform="translate(0.45459)"/>
</clipPath>
</defs>
</svg>
