<svg width="34" height="34" viewBox="0 0 34 34" fill="none" xmlns="http://www.w3.org/2000/svg">
<path d="M2.48959 31.5104C0 29.0208 0 25.0139 0 17C0 8.98612 0 4.97918 2.48959 2.48959C4.97918 0 8.98612 0 17 0C25.0139 0 29.0208 0 31.5104 2.48959C34 4.97919 34 8.98612 34 17C34 25.0139 34 29.0208 31.5104 31.5104C29.0208 34 25.0139 34 17 34C8.98612 34 4.97918 34 2.48959 31.5104Z" fill="#171717"/>
<ellipse cx="17" cy="10.0002" rx="4.66667" ry="4.66667" fill="white"/>
<ellipse cx="17" cy="22.8332" rx="8.16667" ry="4.66667" fill="white"/>
</svg>
