<svg width="24" height="24" viewBox="0 0 24 24" fill="none" xmlns="http://www.w3.org/2000/svg">
<path d="M17 15C17.5523 15 18 14.5523 18 14C18 13.4477 17.5523 13 17 13C16.4477 13 16 13.4477 16 14C16 14.5523 16.4477 15 17 15Z" fill="#3DBCCC"/>
<path d="M19 5H6C4.89543 5 4 5.89543 4 7V7.13793C4 8.2425 4.89543 9.13793 6 9.13793H18C19.1046 9.13793 20 10.0334 20 11.1379V18C20 19.1046 19.1046 20 18 20H6C4.89543 20 4 19.1046 4 18V12.2414" stroke="#3DBCCC" stroke-width="1.7" stroke-linecap="round" stroke-linejoin="round"/>
</svg>
